<?xml version="1.0" encoding="UTF-8"?>
<svg xmlns="http://www.w3.org/2000/svg" xmlns:xlink="http://www.w3.org/1999/xlink" width="500px" height="500px" viewBox="0 0 500 500" version="1.1">
<g id="surface1">
<path style=" stroke:none;fill-rule:nonzero;fill:rgb(0%,0%,0%);fill-opacity:1;" d="M 211.082031 380.085938 L 213.640625 387.761719 L 199.425781 387.761719 L 195.882812 376.347656 C 195.683594 375.816406 195.398438 375.316406 195.046875 374.871094 L 176.742188 351.941406 L 179.597656 333.644531 L 197.605469 338.171875 L 191.945312 345.449219 C 190.753906 347.148438 190.753906 349.410156 191.945312 351.109375 Z M 371.867188 272.734375 L 363.160156 278.539062 L 351.105469 270.519531 C 349.90625 269.726562 348.421875 269.503906 347.039062 269.898438 C 345.65625 270.296875 344.519531 271.277344 343.921875 272.585938 L 325.03125 315.144531 L 292.359375 329.117188 C 291.476562 329.5 290.722656 330.132812 290.195312 330.9375 L 280.355469 345.699219 C 279.664062 346.722656 279.382812 347.96875 279.566406 349.191406 L 284.484375 378.710938 L 284.488281 378.710938 C 284.460938 378.972656 284.460938 379.234375 284.488281 379.496094 L 287.4375 387.761719 L 277.597656 387.761719 L 274.597656 381.660156 L 274.597656 373.003906 C 274.59375 372.234375 274.410156 371.476562 274.058594 370.789062 L 254.378906 331.429688 L 254.375 331.429688 C 253.726562 330.050781 252.472656 329.050781 250.980469 328.726562 L 226.378906 323.804688 L 226.382812 323.804688 C 225.734375 323.65625 225.0625 323.65625 224.414062 323.804688 L 200.796875 328.726562 L 162.617188 318.882812 C 160.761719 318.492188 158.851562 319.199219 157.699219 320.703125 L 143.429688 339.695312 L 129.210938 349.238281 C 127.835938 350.144531 127.007812 351.675781 126.996094 353.324219 L 126.996094 377.921875 C 126.925781 378.445312 126.925781 378.976562 126.996094 379.496094 L 130 387.761719 L 117.160156 387.761719 L 117.160156 377.925781 C 117.183594 377.726562 117.183594 377.527344 117.160156 377.332031 L 112.238281 339.792969 L 130.882812 311.75 L 130.886719 311.75 C 131.367188 311.195312 131.722656 310.539062 131.917969 309.828125 L 136.496094 282.425781 L 163.605469 264.371094 L 211.523438 250.003906 L 279.859375 245.082031 C 280.710938 245.027344 281.527344 244.738281 282.222656 244.246094 L 296.195312 234.949219 L 319.863281 230.03125 L 319.863281 230.027344 C 320.480469 229.90625 321.066406 229.65625 321.582031 229.289062 L 335.65625 219.941406 L 351.792969 215.90625 L 357.304688 221.371094 L 337.625 225.304688 L 339.59375 235.144531 L 363.15625 230.324219 L 363.15625 250.003906 C 363.148438 250.628906 363.265625 251.246094 363.5 251.824219 Z M 371.867188 272.734375 "/>
<path style=" stroke:none;fill-rule:nonzero;fill:rgb(0%,0%,0%);fill-opacity:1;" d="M 362.566406 111.109375 L 378.3125 116.375 L 306.820312 152.140625 C 305.875 152.597656 305.109375 153.359375 304.65625 154.308594 L 282.5625 198.589844 L 223.523438 157.554688 C 222.378906 156.753906 220.945312 156.480469 219.585938 156.796875 C 218.222656 157.117188 217.0625 158 216.390625 159.226562 L 187.363281 211.871094 L 105.101562 253.003906 L 109.53125 261.761719 L 193.175781 219.941406 L 193.171875 219.941406 C 194.066406 219.5 194.804688 218.796875 195.285156 217.921875 L 222.199219 168.722656 L 281.632812 209.855469 L 281.636719 209.855469 C 282.808594 210.675781 284.28125 210.945312 285.667969 210.59375 C 287.039062 210.230469 288.1875 209.300781 288.820312 208.035156 L 312.730469 160.308594 L 382.84375 125.179688 L 377.480469 140.972656 L 390.121094 134.625 L 397.601562 112.242188 L 375.21875 104.761719 Z M 362.566406 111.109375 "/>
<path style=" stroke:none;fill-rule:nonzero;fill:rgb(0%,0%,0%);fill-opacity:1;" d="M 359.074219 222.660156 L 368.925781 207.882812 L 377.113281 213.339844 L 367.261719 228.117188 Z M 359.074219 222.660156 "/>
<path style=" stroke:none;fill-rule:nonzero;fill:rgb(0%,0%,0%);fill-opacity:1;" d="M 388.597656 222.691406 L 379.890625 235.730469 L 373.003906 237.105469 L 373.003906 246.949219 L 383.824219 245.078125 C 385.113281 244.84375 386.238281 244.074219 386.925781 242.960938 L 396.765625 228.203125 Z M 388.597656 222.691406 "/>
</g>
</svg>
