<?xml version="1.0" encoding="UTF-8"?>
<svg xmlns="http://www.w3.org/2000/svg" xmlns:xlink="http://www.w3.org/1999/xlink" width="500px" height="500px" viewBox="0 0 500 500" version="1.1">
<g id="surface1">
<path style=" stroke:none;fill-rule:nonzero;fill:rgb(0%,0%,0%);fill-opacity:1;" d="M 374.429688 307.613281 C 374.140625 307.316406 373.894531 306.988281 373.691406 306.628906 L 359.667969 283.257812 L 321.585938 264.21875 L 288.128906 250 L 234.796875 245.078125 L 233.960938 245.078125 L 181.121094 230.320312 L 146.679688 236.617188 L 127 260.480469 L 127 312.53125 L 173.984375 387.757812 L 203.800781 387.757812 L 201.589844 381.066406 L 188.253906 372.160156 C 187.105469 371.414062 186.320312 370.21875 186.089844 368.867188 L 181.167969 339.347656 C 180.941406 337.917969 181.355469 336.457031 182.300781 335.363281 C 183.234375 334.269531 184.601562 333.640625 186.039062 333.640625 L 274.605469 333.640625 C 276.277344 333.644531 277.832031 334.496094 278.734375 335.902344 L 311.75 387.757812 L 338.5625 387.757812 L 338.5625 380.96875 L 321.589844 372.457031 C 319.9375 371.625 318.890625 369.929688 318.882812 368.078125 L 318.882812 331.375 L 292.855469 323.796875 L 295.710938 313.960938 L 343.484375 328.71875 L 356.769531 324.292969 L 356.765625 324.292969 C 357.605469 324.066406 358.488281 324.066406 359.324219 324.292969 L 380.675781 328.570312 L 386.433594 319.914062 Z M 361.734375 307.613281 L 360.996094 308.203125 L 360.113281 308.644531 L 360.109375 308.648438 C 359.832031 308.785156 359.53125 308.886719 359.222656 308.941406 L 358.238281 309.039062 C 355.523438 309.039062 353.320312 306.835938 353.320312 304.121094 C 353.328125 303.476562 353.464844 302.84375 353.714844 302.25 C 353.964844 301.65625 354.3125 301.105469 354.75 300.625 C 355.902344 299.425781 357.585938 298.886719 359.222656 299.199219 C 359.53125 299.253906 359.832031 299.355469 360.109375 299.492188 L 360.996094 299.9375 L 361.734375 300.523438 L 361.734375 300.527344 C 362.183594 300.996094 362.53125 301.546875 362.765625 302.152344 C 363.03125 302.773438 363.167969 303.445312 363.160156 304.121094 C 363.144531 305.421875 362.632812 306.671875 361.734375 307.613281 Z M 361.734375 307.613281 "/>
<path style=" stroke:none;fill-rule:nonzero;fill:rgb(0%,0%,0%);fill-opacity:1;" d="M 141.269531 353.960938 L 125.082031 328.082031 L 121.785156 335.367188 L 112.832031 366.65625 L 131.921875 385.746094 L 136.152344 381.515625 L 132.167969 369.660156 L 132.167969 369.65625 C 131.652344 368.121094 131.925781 366.425781 132.902344 365.132812 Z M 141.269531 353.960938 "/>
<path style=" stroke:none;fill-rule:nonzero;fill:rgb(0%,0%,0%);fill-opacity:1;" d="M 377.480469 226.191406 L 382.84375 241.984375 L 322.425781 211.824219 L 298.566406 168.871094 L 298.5625 168.871094 C 297.332031 166.667969 294.632812 165.753906 292.316406 166.753906 L 218.019531 199.277344 L 195.4375 149.585938 C 194.976562 148.5625 194.179688 147.730469 193.175781 147.222656 L 109.53125 105.402344 L 105.105469 114.160156 L 187.21875 155.246094 L 211.078125 207.738281 L 211.082031 207.738281 C 212.179688 210.199219 215.054688 211.320312 217.527344 210.25 L 292.164062 177.582031 L 314.597656 217.972656 C 315.074219 218.820312 315.792969 219.503906 316.664062 219.941406 L 378.3125 250.789062 L 362.566406 256.054688 L 375.210938 262.402344 L 397.597656 254.925781 L 390.121094 232.539062 Z M 377.480469 226.191406 "/>
</g>
</svg>
