<?xml version="1.0" encoding="UTF-8"?>
<svg xmlns="http://www.w3.org/2000/svg" xmlns:xlink="http://www.w3.org/1999/xlink" width="500px" height="500px" viewBox="0 0 500 500" version="1.1">
<g id="surface1">
<path style=" stroke:none;fill-rule:nonzero;fill:rgb(0%,0%,0%);fill-opacity:1;" d="M 247.578125 260.234375 L 219.617188 245.121094 C 220.089844 239.828125 220.34375 226.226562 212.941406 217.722656 C 208.703125 212.933594 202.585938 210.222656 196.191406 210.289062 C 190.773438 206.523438 184.726562 203.75 178.335938 202.105469 C 180.007812 196.6875 185.109375 190.261719 196.191406 178.203125 C 203.542969 169.953125 208.382812 159.769531 210.140625 148.859375 C 211.054688 143.628906 212.46875 135.726562 210.484375 130.21875 C 210.117188 129.167969 209.21875 128.386719 208.125 128.171875 C 207.027344 127.957031 205.902344 128.34375 205.164062 129.179688 C 202.816406 132.007812 200.707031 135.03125 198.867188 138.214844 C 197.429688 140.636719 195.851562 142.96875 194.144531 145.207031 C 187.28125 154.074219 179.0625 161.808594 169.804688 168.128906 C 154.75 178.144531 147.101562 189.761719 146.4375 203.523438 L 146.441406 203.523438 C 142.382812 204.90625 138.503906 206.769531 134.882812 209.066406 L 104.023438 227.957031 C 103.273438 228.375 102.730469 229.082031 102.511719 229.917969 C 102.296875 230.746094 102.433594 231.628906 102.882812 232.359375 C 103.332031 233.089844 104.0625 233.605469 104.90625 233.785156 C 105.746094 233.964844 106.621094 233.792969 107.332031 233.3125 L 138.25 214.417969 C 140.878906 212.730469 143.660156 211.304688 146.566406 210.167969 C 147.667969 224.996094 154.34375 234.914062 165.457031 237.65625 C 167.15625 238.09375 168.902344 238.316406 170.65625 238.316406 C 174.089844 238.496094 177.492188 237.539062 180.335938 235.601562 C 183.179688 233.660156 185.308594 230.84375 186.398438 227.578125 C 188.214844 222.269531 187.910156 216.457031 185.546875 211.363281 C 188.28125 212.648438 190.882812 214.1875 193.324219 215.960938 C 193.855469 216.347656 194.496094 216.554688 195.152344 216.558594 C 200.0625 216.226562 204.859375 218.164062 208.15625 221.816406 C 215.460938 230.289062 213.164062 246.253906 213.164062 246.441406 C 213.003906 247.71875 213.640625 248.96875 214.769531 249.589844 L 230.515625 258.125 C 231.332031 271.320312 238.101562 276.359375 241.410156 278.054688 C 240.753906 279.761719 239.855469 281.367188 238.730469 282.808594 C 234.304688 282.117188 230.15625 280.195312 226.765625 277.265625 C 226.128906 276.730469 225.300781 276.46875 224.46875 276.535156 C 223.636719 276.605469 222.863281 277.007812 222.328125 277.644531 C 221.785156 278.28125 221.515625 279.105469 221.578125 279.9375 C 221.644531 280.769531 222.039062 281.542969 222.671875 282.085938 C 225.765625 284.726562 229.351562 286.726562 233.21875 287.976562 C 227.871094 291.617188 221.554688 293.570312 215.082031 293.582031 L 167.851562 293.582031 C 159.074219 293.5625 150.660156 290.070312 144.445312 283.871094 C 138.234375 277.667969 134.726562 269.261719 134.695312 260.484375 C 134.695312 258.746094 133.285156 257.335938 131.546875 257.335938 C 129.808594 257.335938 128.398438 258.746094 128.398438 260.484375 C 128.410156 269.457031 131.476562 278.15625 137.089844 285.15625 C 142.703125 292.15625 150.53125 297.035156 159.289062 298.996094 L 156.578125 300.882812 C 148.363281 306.640625 142.503906 315.171875 140.082031 324.910156 C 137.902344 333.613281 132.5 341.164062 124.964844 346.039062 L 103.964844 359.609375 C 102.789062 360.367188 102.253906 361.8125 102.65625 363.15625 C 103.054688 364.496094 104.292969 365.414062 105.695312 365.402344 C 106.300781 365.402344 106.886719 365.226562 107.394531 364.898438 L 128.394531 351.328125 L 128.398438 351.328125 C 137.238281 345.566406 143.566406 336.664062 146.09375 326.421875 C 148.144531 318.15625 153.125 310.917969 160.105469 306.046875 L 168.765625 299.96875 L 215.144531 299.96875 C 223.996094 299.96875 232.574219 296.910156 239.425781 291.3125 C 240.550781 290.445312 241.605469 289.484375 242.574219 288.445312 C 242.71875 288.285156 242.855469 288.117188 242.984375 287.941406 C 247.089844 283.109375 249.328125 276.964844 249.28125 270.621094 L 249.28125 263 C 249.273438 261.835938 248.617188 260.769531 247.582031 260.234375 Z M 172.421875 213 C 172.933594 214.542969 174.535156 215.441406 176.117188 215.078125 C 177.703125 214.707031 178.746094 213.195312 178.527344 211.582031 C 181.324219 215.699219 182.015625 220.890625 180.386719 225.597656 C 178.496094 231.484375 172.039062 232.773438 166.847656 231.453125 C 155.699219 228.679688 153.117188 216.589844 152.742188 208.085938 L 152.742188 205.410156 L 152.738281 205.410156 C 152.734375 204.117188 152.804688 202.824219 152.960938 201.539062 C 154.1875 190.671875 160.769531 181.605469 173.363281 173.199219 C 183.101562 166.582031 191.757812 158.5 199.027344 149.238281 C 200.890625 146.800781 202.601562 144.253906 204.160156 141.617188 L 205.074219 140.199219 C 204.820312 142.96875 204.316406 145.804688 203.875 148.164062 C 202.3125 157.785156 198.03125 166.753906 191.535156 174.015625 C 180.042969 186.609375 174.089844 194.011719 172.167969 200.972656 C 171.5625 203.011719 171.320312 205.140625 171.445312 207.269531 C 171.550781 209.242188 171.878906 211.195312 172.421875 213.09375 Z M 242.925781 270.621094 L 242.925781 271.660156 C 239.921875 269.207031 237.953125 265.710938 237.414062 261.867188 L 242.957031 265.015625 Z M 242.925781 270.621094 "/>
<path style=" stroke:none;fill-rule:nonzero;fill:rgb(0%,0%,0%);fill-opacity:1;" d="M 205.160156 236.371094 C 205.566406 236.296875 205.90625 236.011719 206.046875 235.625 C 206.191406 235.234375 206.117188 234.796875 205.851562 234.480469 L 197.917969 225.316406 C 197.480469 224.894531 196.78125 224.894531 196.34375 225.316406 C 194.675781 226.351562 193.625 228.144531 193.542969 230.105469 C 193.457031 232.066406 194.355469 233.941406 195.933594 235.109375 C 198.109375 237.125 202.578125 236.777344 205.160156 236.371094 Z M 205.160156 236.371094 "/>
<path style=" stroke:none;fill-rule:nonzero;fill:rgb(0%,0%,0%);fill-opacity:1;" d="M 308.976562 230.160156 L 302.394531 239.324219 C 302.160156 239.625 302.085938 240.019531 302.191406 240.386719 C 302.296875 240.757812 302.570312 241.050781 302.929688 241.183594 C 305.070312 241.59375 308.785156 241.9375 310.582031 239.796875 C 311.933594 238.503906 312.667969 236.695312 312.609375 234.828125 C 312.550781 232.960938 311.699219 231.207031 310.265625 230.003906 C 310.085938 229.820312 309.835938 229.730469 309.585938 229.761719 C 309.328125 229.792969 309.105469 229.941406 308.976562 230.160156 Z M 308.976562 230.160156 "/>
<path style=" stroke:none;fill-rule:nonzero;fill:rgb(0%,0%,0%);fill-opacity:1;" d="M 394.15625 338.542969 C 374.539062 337.222656 359.992188 320.28125 353.976562 311.96875 C 368.429688 311.152344 381.6875 307.183594 396.171875 292.605469 L 396.167969 292.605469 C 397.394531 291.367188 397.390625 289.371094 396.152344 288.148438 C 394.917969 286.921875 392.925781 286.929688 391.699219 288.164062 C 374.601562 305.324219 359.863281 306.265625 340.875 305.765625 C 321.886719 305.261719 311.9375 297.042969 311.84375 296.976562 L 311.84375 296.980469 C 311.179688 296.417969 310.3125 296.15625 309.453125 296.253906 L 285.015625 298.898438 C 282.148438 299.074219 279.296875 298.382812 276.828125 296.917969 C 274.359375 295.453125 272.382812 293.28125 271.160156 290.683594 L 272.609375 290.683594 C 274.351562 290.535156 275.636719 289.003906 275.488281 287.265625 C 275.34375 285.527344 273.816406 284.234375 272.074219 284.382812 C 269.351562 284.738281 266.59375 283.988281 264.421875 282.304688 C 267.917969 279.15625 272.578125 272.859375 273.144531 259.917969 C 284.691406 251.933594 293.183594 240.265625 297.234375 226.824219 C 298.382812 222.453125 301.273438 218.742188 305.230469 216.558594 L 337.378906 200.40625 L 336.6875 203.210938 C 336.34375 204.863281 337.375 206.496094 339.015625 206.902344 C 340.65625 207.308594 342.328125 206.34375 342.796875 204.722656 L 348.714844 180.726562 C 352 179.925781 355.464844 180.644531 358.164062 182.679688 C 363.0625 186.589844 365.648438 192.71875 365.027344 198.957031 L 364.050781 213.914062 C 364 214.75 364.28125 215.570312 364.835938 216.199219 C 365.394531 216.824219 366.175781 217.203125 367.011719 217.253906 L 367.199219 217.253906 C 368.855469 217.253906 370.230469 215.972656 370.347656 214.324219 L 371.324219 199.363281 C 371.414062 197.496094 371.332031 195.617188 371.074219 193.761719 C 377.980469 189.335938 385.925781 186.785156 394.121094 186.359375 C 395.859375 186.230469 397.164062 184.714844 397.035156 182.976562 C 396.90625 181.238281 395.386719 179.933594 393.652344 180.066406 C 385.101562 180.554688 376.785156 183.050781 369.371094 187.335938 C 367.839844 183.453125 365.257812 180.074219 361.910156 177.578125 C 357.019531 173.914062 350.566406 173.078125 344.90625 175.371094 C 343.976562 175.757812 343.285156 176.566406 343.046875 177.546875 L 339.332031 192.375 L 302.332031 210.921875 C 296.824219 213.894531 292.777344 218.992188 291.125 225.027344 C 285.621094 242.917969 271.6875 256.957031 253.839844 262.59375 C 252.515625 263.054688 251.652344 264.339844 251.730469 265.742188 C 251.730469 266.308594 252.015625 279.566406 259.699219 286.527344 C 260.867188 287.585938 262.195312 288.457031 263.636719 289.109375 C 267.101562 299.691406 275.976562 306.238281 285.675781 305.199219 L 308.882812 302.679688 C 318.324219 308.863281 329.367188 312.144531 340.652344 312.125 L 346.386719 312.125 C 350.539062 318.609375 367.703125 343.046875 393.617188 344.808594 L 393.839844 344.808594 L 393.835938 344.8125 C 395.492188 344.8125 396.871094 343.535156 396.988281 341.882812 C 397.097656 340.1875 395.839844 338.710938 394.152344 338.542969 Z M 266.527344 263.949219 C 266.226562 268.9375 264.148438 273.648438 260.671875 277.238281 C 259.347656 274.242188 258.515625 271.050781 258.21875 267.789062 C 261.066406 266.679688 263.839844 265.398438 266.527344 263.949219 Z M 266.527344 263.949219 "/>
</g>
</svg>
